<?xml version="1.0" encoding="utf-8"?>
<!-- Generator: Adobe Illustrator 25.2.1, SVG Export Plug-In . SVG Version: 6.00 Build 0) viewBox  -->
<svg version="1.1" xmlns="http://www.w3.org/2000/svg" xmlns:xlink="http://www.w3.org/1999/xlink" x="0px" y="0px"
	 viewBox="0 0 1920 1080" style="enable-background:new 0 0 1920 1080;" xml:space="preserve">
<style type="text/css">
	.st0{fill:#01008B;}
	.st1{display:none;opacity:0.7;fill:#50004E;}
	.st2{fill:#50004E;}
	.st3{display:none;opacity:0.71;fill:none;}
	.st4{opacity:0.6;fill:none;stroke:#FF0000;stroke-width:38;stroke-linecap:round;stroke-linejoin:round;stroke-miterlimit:10;}
</style>
<g id="base">
	<path class="st0" d="M364.6,440.62c3.68-19.78,12.42-37.49,22.77-48.07c11.27-11.73,24.38-18.63,35.65-18.63
		c9.2,0,15.87,4.14,15.87,9.43c0,5.06-6.67,12.65-10.12,14.03c-2.07,0.92-3.22,0.92-4.6-0.92c-5.52-7.82-11.96-13.11-16.56-13.11
		c-5.06,0-10.35,4.83-18.4,57.27h21.16l-3.22,6.21c-6.9,0.46-11.96,0.69-19.09,0.69c-3.45,17.71-7.13,42.32-11.96,68.77
		c-8.97,46.92-19.32,55.2-35.42,69.69c-9.66,8.51-19.09,11.96-25.3,11.96c-8.05,0-14.49-4.14-14.49-9.89s4.14-11.73,8.51-14.26
		c1.61-0.92,2.99-1.38,4.37,0c7.59,7.59,13.34,11.5,17.94,11.5c9.89,0,10.81-17.25,17.71-56.81c5.06-29.21,8.97-53.36,14.03-80.96
		h-16.56l-0.46-1.15l4.14-5.75H364.6z M501.45,516.74c-13.11,17.02-26.45,23.92-34.04,23.92c-6.67,0-9.43-5.75-5.75-25.99
		l1.84-10.35c-7.13,11.5-14.03,18.4-21.39,25.07c-8.28,7.36-15.18,11.27-22.77,11.27c-9.43,0-14.95-11.04-14.95-26.22
		c0-21.16,9.89-43.93,24.38-57.27c9.43-8.74,27.14-19.32,45.08-19.32c9.89,0,22.08,2.99,26.45,3.91
		c-5.06,18.86-10.35,46.46-15.41,72.91c-1.15,5.98-0.46,8.28,1.84,8.28c1.84,0,5.75-1.84,12.88-9.2L501.45,516.74z M457.52,505.47
		c5.98-8.51,7.59-14.72,9.66-22.31c2.76-10.12,6.21-27.37,7.13-34.04c-3.45-1.84-7.82-3.22-15.64-3.22
		c-19.09,0-28.29,40.71-28.29,63.71c0,10.35,2.99,13.8,6.44,13.8C442.11,523.41,448.09,519.27,457.52,505.47z M657.61,437.85
		c7.59,0,14.26,3.45,8.05,32.2c-3.45,14.95-6.67,29.44-9.89,44.62c-1.61,6.44-0.92,8.97,1.15,8.97c1.61,0,6.67-2.07,13.57-9.43
		l1.84,2.99c-13.11,17.02-26.91,23.46-34.73,23.46c-7.36,0-10.35-4.83-6.44-21.62c3.68-16.79,7.59-33.35,11.5-50.14
		c2.53-11.5,1.61-15.64-2.99-15.64c-7.82,0-21.62,16.1-28.29,28.06c-6.67,11.5-6.9,16.79-8.74,23.46
		c-2.53,10.81-5.29,22.08-6.9,31.05c-8.97,0.69-17.48,2.76-23.92,4.6l-1.38-1.38c5.06-21.39,10.58-45.08,14.49-62.79
		c3.91-17.48,4.14-23-1.61-23c-7.82,0-21.16,14.95-27.83,26.91c-6.67,11.5-7.36,17.94-9.2,24.61c-2.53,10.81-4.83,22.08-6.44,31.05
		c-7.36,0.69-17.25,2.76-23.69,4.6l-1.15-1.38c5.29-23.92,11.04-47.84,16.79-73.6c1.61-7.36,1.61-10.35-1.15-10.35
		c-3.22,0-8.74,4.6-12.88,8.97l-1.84-2.99c10.58-13.11,22.54-23.23,32.2-23.23c8.05,0,11.04,7.36,7.13,26.91l-2.76,11.5
		c17.25-25.53,35.88-38.41,48.53-38.41c7.82,0,14.49,3.45,7.59,35.42l-1.38,6.21C624.96,451.19,645.42,437.85,657.61,437.85z
		 M776.98,471.43c0,24.15-11.73,49.22-33.12,61.64c-7.82,4.6-16.33,7.59-26.45,7.59c-23.69,0-31.28-16.33-31.28-33.81
		c0-29.44,16.33-53.13,37.03-63.25c7.36-3.45,15.41-5.75,23.69-5.75C767.09,437.85,776.98,451.88,776.98,471.43z M711.89,507.31
		c0,19.32,6.44,27.37,14.03,27.37c20.47,0,25.53-47.38,25.53-63.48c0-19.32-5.75-27.14-13.11-27.14
		C718.33,444.06,711.89,490.52,711.89,507.31z M891.06,516.28c-12.42,16.56-26.91,24.38-34.73,24.38c-6.67,0-10.35-4.83-6.67-21.62
		c1.38-6.44,2.53-11.96,3.91-18.17c-12.19,18.4-24.61,29.67-31.74,34.27c-4.6,3.22-10.35,5.52-15.41,5.52
		c-8.97,0-16.1-4.6-9.66-33.12c2.76-12.19,7.36-28.98,10.35-42.09c1.61-7.36,1.84-10.81-0.92-10.81c-2.76,0-9.2,5.06-13.34,9.43
		l-1.84-2.99c10.12-12.19,25.3-23.23,34.96-23.23c7.59,0,9.2,7.36,4.83,27.14c-3.68,16.33-7.13,28.98-10.81,45.31
		c-2.53,11.04,0.92,13.8,3.22,13.8c6.9,0,14.95-9.2,23.46-21.39c4.6-6.67,9.66-16.33,12.19-27.6c2.3-9.66,4.37-19.09,7.13-31.28
		c7.82-1.84,15.87-3.91,23.69-5.98h1.38c-5.29,24.61-11.5,49.45-16.79,76.82c-1.38,6.44-0.92,9.43,1.15,9.43
		c1.84,0,6.9-2.76,13.8-10.58L891.06,516.28z M968.8,450.5c0,3.91-5.06,10.58-8.51,12.19c-1.38,0.69-2.53,0.69-4.14-1.15
		c-5.06-5.98-11.5-13.57-19.32-13.57c-5.75,0-9.89,4.6-9.89,9.66c0,6.44,5.06,10.81,15.64,18.86c17.48,13.8,20.24,18.86,20.24,27.83
		c0,19.32-29.9,36.34-42.78,36.34c-10.81,0-22.77-7.13-22.77-17.02c0-3.68,5.52-11.73,9.89-11.73c1.15-0.23,2.3,0.46,3.22,1.61
		c8.74,10.81,16.1,16.33,24.15,16.33c7.13,0,11.04-4.83,11.04-9.89c0-5.29-3.45-9.66-13.8-18.4c-8.51-7.13-20.47-14.95-20.47-28.06
		c0-7.13,2.99-15.64,14.72-25.3c7.13-5.75,16.33-10.35,24.15-10.35C959.6,437.85,968.8,443.15,968.8,450.5z M1126.8,449.12
		c0,47.84-33.81,92.23-83.72,92.23c-35.88,0-59.57-24.84-59.57-62.56c0-48.76,36.34-93.61,85.56-93.61
		C1104.5,385.19,1126.8,409.57,1126.8,449.12z M1014.11,489.83c0,27.6,7.82,46.23,30.82,46.23c32.2,0,51.52-55.2,51.52-96.6
		c0-28.06-5.75-48.99-30.13-48.99C1037.11,390.48,1014.11,441.31,1014.11,489.83z M1058.04,529.16
		c39.33,27.83,53.59,35.65,65.09,41.17l-0.92,2.53c-8.74,2.53-26.91,1.38-34.04-0.92c-7.59-2.53-20.24-7.82-57.5-35.65
		L1058.04,529.16z M1238.12,516.28c-12.42,16.56-26.91,24.38-34.73,24.38c-6.67,0-10.35-4.83-6.67-21.62
		c1.38-6.44,2.53-11.96,3.91-18.17c-12.19,18.4-24.61,29.67-31.74,34.27c-4.6,3.22-10.35,5.52-15.41,5.52
		c-8.97,0-16.1-4.6-9.66-33.12c2.76-12.19,7.36-28.98,10.35-42.09c1.61-7.36,1.84-10.81-0.92-10.81c-2.76,0-9.2,5.06-13.34,9.43
		l-1.84-2.99c10.12-12.19,25.3-23.23,34.96-23.23c7.59,0,9.2,7.36,4.83,27.14c-3.68,16.33-7.13,28.98-10.81,45.31
		c-2.53,11.04,0.92,13.8,3.22,13.8c6.9,0,14.95-9.2,23.46-21.39c4.6-6.67,9.66-16.33,12.19-27.6c2.3-9.66,4.37-19.09,7.13-31.28
		c7.82-1.84,15.87-3.91,23.69-5.98h1.38c-5.29,24.61-11.5,49.45-16.79,76.82c-1.38,6.44-0.92,9.43,1.15,9.43
		c1.84,0,6.9-2.76,13.8-10.58L1238.12,516.28z M1343.46,471.43c0,24.15-11.73,49.22-33.12,61.64c-7.82,4.6-16.33,7.59-26.45,7.59
		c-23.69,0-31.28-16.33-31.28-33.81c0-29.44,16.33-53.13,37.03-63.25c7.36-3.45,15.41-5.75,23.69-5.75
		C1333.57,437.85,1343.46,451.88,1343.46,471.43z M1278.37,507.31c0,19.32,6.44,27.37,14.03,27.37c20.47,0,25.53-47.38,25.53-63.48
		c0-19.32-5.75-27.14-13.11-27.14C1284.81,444.06,1278.37,490.52,1278.37,507.31z M1420.97,447.06c-7.13,0.23-13.11,0.23-20.24,0.46
		c-4.83,23.69-12.42,60.49-12.88,62.79c-1.61,9.89-1.15,14.03,2.07,14.03c4.83,0,10.35-4.37,17.48-11.73l1.84,2.53
		c-8.28,11.27-23.23,25.53-36.8,25.53c-9.43,0-13.57-7.82-7.82-34.73l12.19-58.42h-16.33l-0.46-1.15l5.06-5.75h13.11l5.06-23.69
		c7.36-2.99,18.17-8.51,25.99-14.03l1.84,0.92c-2.99,9.66-6.21,24.61-8.97,36.8h22.31L1420.97,447.06z M1447.19,540.66
		c-11.96,0-25.53-6.67-25.53-32.2c0-21.85,9.2-43.7,24.61-56.81c9.43-8.05,23-13.8,33.58-13.8c13.11,0,18.17,8.28,18.17,17.25
		c0,20.01-31.51,30.13-51.06,34.96c-0.46,4.14-0.46,6.9-0.46,8.28c0,14.72,4.14,27.14,17.02,27.14c8.51,0,17.94-4.14,28.29-14.95
		l1.84,2.99C1476.17,534.91,1458.69,540.66,1447.19,540.66z M1447.65,484.77c22.77-4.14,28.98-17.25,28.98-28.29
		c0-6.67-3.22-11.27-8.51-11.27C1460.76,445.21,1451.33,453.26,1447.65,484.77z M1570.7,450.5c0,3.91-5.06,10.58-8.51,12.19
		c-1.38,0.69-2.53,0.69-4.14-1.15c-5.06-5.98-11.5-13.57-19.32-13.57c-5.75,0-9.89,4.6-9.89,9.66c0,6.44,5.06,10.81,15.64,18.86
		c17.48,13.8,20.24,18.86,20.24,27.83c0,19.32-29.9,36.34-42.78,36.34c-10.81,0-22.77-7.13-22.77-17.02
		c0-3.68,5.52-11.73,9.89-11.73c1.15-0.23,2.3,0.46,3.22,1.61c8.74,10.81,16.1,16.33,24.15,16.33c7.13,0,11.04-4.83,11.04-9.89
		c0-5.29-3.45-9.66-13.8-18.4c-8.51-7.13-20.47-14.95-20.47-28.06c0-7.13,2.99-15.64,14.72-25.3c7.13-5.75,16.33-10.35,24.15-10.35
		C1561.5,437.85,1570.7,443.15,1570.7,450.5z"/>
</g>
<g id="mask">
	<path class="st1" d="M423.02,373.92"/>
	<path class="st2" d="M322.96,515.68c-0.63,2.71-0.96,5.3-0.96,7.73"/>
	<path class="st3" d="M438.89,383.35c0,0-43.42-9.02-43.42,1.84s-35.16,79.81-35.16,79.81l-7.38,109.3L322,588.54l25.26-143.32
		c59.74,1.79,136.28-1.15,136.28-1.15s-1.61,8.06-3.49,18.58c-2.61,14.66-5.74,34.11-5.74,43.2c0,15.62-65.11,11.04-65.11,28.84
		s12.41-69.69,12.41-69.69l52.69,64.17l27.14-12.42c0,0,14.49-41.28,14.49-55.66s32.2-23.23,32.2-23.23l-22.29,91.31l46.55-76.53
		l21.28-6.73v83.26c0,0,44.76-60.16,44.76-83.95s16.26,26.56,16.26,26.56l-17.31,57.38l34.95-11.96l17.29-23.12l42.05-56.22
		l36.48,27.14c0,0,25.56,39.1-8.3,54.55C726,535,726,535,726,535l-29-27l109.19-53.35l19.78-16.79l-19.36,91.31l73.08-83.26
		l-17.31,69.78l20.82,3.87L960,445.91c0,0-21.96-11.5-33.98,2.3S960,514.8,960,514.8s-20.92,33.53-39.96,25.86S901,533,901,533
		s132.21,9.37,113.11-17.32c-19.11-26.68-10.1-97.33-10.1-97.33l72.88-33.17l46.23,58.88c0,0,15.77,34.3-26.68,71.62
		s-65.78,20.61-65.78,20.61l73.8,37.92l33.61-113.12l34.96-23.23l-18.34,96.83l69.23-88.78l-13.46,69.78l-7.07,24.98l69.04-84.4
		l40.9-18.41c0,0,26.59-13.99,30.13,33.58s-51.06,63.25-51.06,63.25s-43.16-14.12-54.28-18.4s40.25-51.29,40.25-51.29l81.65-18.63
		l61.64-2.3l-29.44-31.23C1378,529,1378,529,1378,529l98.63-65.73c0,0,41.29-17.46,8.83-17.36s-51.92,38.28-51.92,38.28l5.77,35.36
		l47.06-3.87l74.09-69.78l-32.54,2.3c0,0-25.07,18.35-3.99,23.57s40.79,32.54,40.79,32.54l-28.29,25.53L387.55,444.72"/>
	<path class="st4" d="M438.89,383.35c-31.39,0.15-69,38.24-69,38.24l-26.95,144.55c0,0,2.48,42.23-19.98,31.8
		c-22.46-10.43,23.47-151.57,23.47-151.57l60.72,0.46l84.08-0.92l-60.85,88.78l-12.23-43.22c0,0-13.97-45.84,34.19-47.4
		s21.96,85.1,21.96,85.1l25.3-15.41l21.59-58.8l25.8-9.05l-19.23,83.26l73.27-91.31l-17.5,81.69c0,0,59.81-104.92,65.38-75.48
		c5.58,29.44-9.62,75.48-9.62,75.48l3.1,20.45l29.92-22.8l50.83-73.6c0,0,20.26-23.29,37.3,2.3s-16.6,87.17-16.6,87.17
		s-34.93,15.55-44.65,2.99s0.85-72.79,0.85-72.79s63.46,4.4,90.95-2.18s34.96-23.23,34.96-23.23l-19.36,91.31
		c0,0,18.2-6.58,43.04-10.12s25.84-65.54,25.84-65.54l-3.53,81.18l88.32-71.99c0,0,12.87-24.24-23.46-14.72
		s-12.91,36.68-12.91,36.68L960,514.8c0,0-22.42,33.03-39.96,25.86s-22.77-17.02-22.77-17.02l133.4-128.47c0,0,7.1-10.24,56.97-7.46
		c49.86,2.78,8.81,120.05,8.81,120.05l-42.77,32.89l-15.8-11.5L998.5,500.5l15.61-73.5l123.97,34.08l34.96-23.23l-22.19,91.31
		l28.85-9.62l40.39-73.64l-11.54,83.26l81.11-85.56c0,0,17.87-0.68,44.37,1.61s-11.21,78.2-11.21,78.2l-38.91,17.25l-17.35-77.39
		l110.27-15.75l33.65-1.61l-9.63-37.68l-24.98,111.32c0,0-18.98,32.95,1.84,20.45s82.15-58.9,82.15-58.9l25.62-17.83v-17.36
		c0,0-26.42-10.1-39.19,5.75s-19,39.21-8.89,64.03c10.12,24.82,124.8-52.99,124.8-52.99l-9.42-16.79l-24.85,2.3l-5.92,23.57
		l28.5,28.72c0,0,30.94,6.83,4.97,22.91c-25.97,16.09-56.3,0.23-56.3,0.23s-488.09-39.32-441.13,5.52s56.27,45.13,56.27,45.13"/>
</g>
</svg>
