<!--?xml version="1.0" encoding="utf-8"?-->
<!-- Generator: Adobe Illustrator 22.1.0, SVG Export Plug-In . SVG Version: 6.00 Build 0)  -->
<svg version="1.1" id="_x34_" xmlns="http://www.w3.org/2000/svg" xmlns:xlink="http://www.w3.org/1999/xlink" x="0px" y="0px" viewBox="0 0 800 577" style="enable-background:new 0 0 800 577;" xml:space="preserve">
<style type="text/css">
	.stblack{fill:#000000;}
</style>
<g>
	<path class="stblack" d="M640,479.3c-28.4,16.9-58.4,29.6-89.6,40.2c-14.9,5.1-28.7,11.2-44.3,14.2c-16.3,3.1-32.5,5.3-48.9,7.2
		c-16,1.9-31.5,4.9-47.7,4.7c-16.5-0.2-33.1,0.4-49.6,0.2c-32.7-0.4-64.4-7.4-96-15.6c-15.9-4.1-31.7-8.6-47.2-14.1
		c-14.5-5.1-29.6-9-43.1-16.5c-13.5-7.4-26.3-15.9-39.9-23.1c-14.7-7.8-25.8-18.3-37.6-29.8c-11-10.7-20.7-22.1-30.8-33.6
		c-5-5.8-10.3-11.3-14.8-17.4c-6-8.3-10.1-17.7-13.8-27.2c-6.6-17.1-13.1-34.7-14.4-53.2c-1.2-16.1-0.5-33.2,1.5-49.2
		c2.1-16.5,8.5-31.5,14.6-46.9c5.9-14.9,12.5-28.3,22-41.3c10-13.7,21.7-24.6,33.9-36.3c10.6-10.1,19.8-21.2,32.4-29
		c25.7-15.9,52.4-30.9,80.1-42.9c13.7-5.9,26.3-13.6,40.9-17.3c14.8-3.7,29.7-7.1,44.6-10.4c32.6-7.2,65.4-8.8,98.4-12.3
		c33.7-3.6,67.1,1.6,100.5,6c16.4,2.1,32.5,5.5,48.4,9.7c14.7,3.9,28.3,10.2,42.5,15.4c30.3,11,59,23.5,85.4,42.1
		c12.9,9.1,27,17.8,38.3,29c10.3,10.2,18.2,22.9,27.8,33.8c6.5,7.4,12.9,14.8,17.6,23.6c3.9,7.4,7,15.2,9.9,23.1
		c6.6,17.5,9.7,35.9,12.4,54.3c4.7,32.4-5.5,67.7-18.7,97.1c-12.4,27.5-33.4,49-56.2,68.4c-9.9,8.5-21.8,14.2-32.3,21.9
		c-0.7,0.5,1,3.6,1.4,3.3c11-8,23.4-14.1,33.7-23.1c11.5-10.1,21.7-20.4,32-31.7c22.5-24.6,32.9-57,39.6-89
		c3.3-15.5,4.3-30.5,1.9-46.2c-2.3-15.5-4.6-31.4-9.6-46.3c-4.4-13.3-9.6-27-17-39c-8.2-13.2-19.9-24-29.2-36.4
		c-18.2-24.1-44.1-41.7-69.7-57.4c-14.6-8.9-30.4-16.7-46.3-22.9c-15.6-6.1-31.3-12.1-46.9-17.9C523.9,35.5,488.6,32,454.7,27.6
		c-33.7-4.3-66.9-0.7-100.6,1.7c-34.6,2.5-67.7,10.9-101.5,18.3c-15.9,3.5-29.1,10.6-43.8,17.3c-15.1,6.8-29.9,13.8-44.4,21.7
		c-13.8,7.5-27.9,15.4-41.1,23.9c-13.1,8.5-22.9,20.8-34.3,31.4c-12.1,11.2-22.9,22.5-32.5,36c-9.8,13.9-15.8,28.6-22.1,44.2
		c-6,14.7-11.1,29.3-12.7,45.1c-1.6,15.9-2.4,32.7-0.8,48.7c1.5,15,6.1,29.4,11.3,43.4c5,13.5,10,27.3,18.6,39
		c9,12.3,19.8,23.8,29.9,35.2c10.6,11.9,22.4,23.9,34.7,33.9c12,9.8,26.5,15.6,39.7,23.6c14.1,8.6,27.3,16.6,43.1,21.8
		c16.1,5.3,32.1,11.1,48.4,15.7c16.4,4.7,33,8.2,49.6,12.4c15.7,3.9,31.2,6.1,47.3,7.3c17.5,1.3,34.8,0.1,52.3,0.4
		c17.7,0.3,34.4-0.4,52-2.9c17.2-2.5,34.5-4.1,51.6-7.1c8-1.4,16.1-2.8,23.9-5c8.2-2.4,15.8-6,23.8-9c16.2-6,32.4-11.5,48.3-18.1
		c16-6.6,31.2-14.8,46.1-23.7C642,482.2,640.5,479,640,479.3z"></path>
	<path class="stblack" d="M635.1,487.6c-13.9,8.4-28.2,16.1-42.6,23.8c-14.5,7.8-30,15.8-45.6,21.2c-14.3,5-29.3,6.5-43.5,12
		c-15.8,6.2-31,7.7-47.6,9.7c-16.2,2-32.1,4.7-48.5,4.4c-7.7-0.1-15.4-0.7-23.1-0.5c-8.3,0.2-16.6,1.2-24.9,1.1
		c-16.4-0.3-32.6-5.9-48.8-8.2c-15.6-2.2-30.7-5.5-45.8-9.9c-14.9-4.4-30.5-7.5-44.9-13.4c-14.6-6-28.1-14.2-42.8-19.9
		c-15.4-5.9-27.7-15-40.9-24.7c-13.1-9.7-26.2-18.6-38.2-29.7c-12.4-11.5-22.5-23.8-31.7-37.9c-9.2-14.2-18.6-28.2-24.8-44
		c-2.9-7.5-5.2-15.3-7.6-23c-2.9-9.3-6.3-18.5-7.8-28.1c-2.8-17.1-2.5-35.1,0.1-52.2c2.4-16.5,6.3-33.2,12.3-48.8
		c5.8-15,15.3-28.4,23.2-42.3c16-28.2,40.9-51.1,66.4-70.9c24.5-18.9,50.9-36,79.2-48.7c14.4-6.5,29.4-13.3,44.8-17
		c15.5-3.7,31.2-6.9,46.8-10.1c15.6-3.2,31.3-6.7,47.1-8.6c16.3-1.9,32.7-1.9,49-3.5c33.9-3.3,66.9,2.6,100.4,7
		c15.9,2.1,30.4,6,45.5,11.2c14.9,5.1,30.6,7,45.1,13.1c29.2,12.3,58.9,27.2,84.6,45.8c26,18.7,50,42.9,68.7,68.9
		c10.5,14.5,19.4,30.1,26.1,46.7c6.9,17.1,9.1,34.3,11.4,52.5c2.4,19.4,1.9,37.4-2.2,56.5c-3.3,15.4-8.5,29.7-14.6,44.1
		c-12.1,28.8-29.9,53-50.3,76.5c-10.8,12.5-24.1,21.4-37.2,31.2c-0.7,0.5,1,3.6,1.4,3.3c12.8-9.6,25.9-18.4,36.5-30.5
		c10.9-12.4,21.6-25.6,31-39.1c18.4-26.6,30.6-59,36.4-90.7c3.2-17.1,2.5-33.5,0.4-50.7c-1.9-15.2-3.4-30-8.5-44.5
		c-10-28.4-26-53.9-45.9-76.4c-21.9-24.8-45.4-46.7-73.8-63.9c-14.6-8.8-29.8-16.1-45.1-23.6c-15.7-7.7-30.6-13.6-47.6-17.7
		c-16.1-3.8-31.3-10.9-47.7-13.9c-16.2-3-32.7-4.9-49.1-7.2c-34.4-4.9-68.5-2.1-102.9,0.2c-34.1,2.2-67.2,12-100.6,18.5
		c-16.9,3.3-33.1,10.3-48.9,17.3c-15,6.6-29.9,14-43.5,23.3c-13.9,9.4-28,18.6-41.2,29c-13.6,10.8-26.2,22.6-38.4,35
		c-11,11.2-19.3,23.3-27,36.9c-8.3,14.6-17.7,28.2-23.2,44.1c-10.8,31.2-16.3,66.9-10.1,99.6c2.8,14.6,8,29.2,12.8,43.2
		c4.8,14.1,11.5,27.2,19.4,39.7c7.7,12.2,15.4,25.2,25,36.1c10.8,12.3,23.3,23.8,36.5,33.4c12.7,9.3,25.2,19.2,38.4,27.7
		c13.9,9,30.3,13.3,45,20.9c15.1,7.8,29.8,13.1,46.2,17.5c16,4.3,31.6,9.6,47.9,12.6c8.1,1.5,16.4,2.5,24.5,3.7
		c8.6,1.3,17,3.7,25.6,5.4c16.2,3.1,32.5,0.1,48.8,0.6c17.4,0.5,34.1-0.1,51.4-2.5c17.1-2.4,34.9-2.6,51.3-8.5
		c7.5-2.7,14.7-6,22.5-8.1c8.1-2.2,16.5-3.1,24.6-5.5c16-4.7,32-13.3,46.7-21.1c15.2-8,30.3-16.2,45-25.1
		C637.2,490.6,635.6,487.3,635.1,487.6z"></path>
	<path class="stblack" d="M632.3,493.4c-26.4,16.8-55.9,28.3-85.1,39.2c-15.2,5.7-31.1,7.9-47,11.1c-14.9,3-29.6,6.3-44.9,7
		c-16.1,0.7-32.2,1.8-48.3,2.6c-15.6,0.7-31-0.3-46.6-0.4c-8.3-0.1-16.5,0.6-24.8,0.5c-9.2-0.2-18.1-1.7-27.1-3.6
		c-15.2-3.1-30.6-5.6-45.7-9.1c-31.5-7.3-61.8-16.4-90.8-30.8c-14-6.9-27.9-14.4-41-22.9c-12.8-8.3-24.2-18.4-35.8-28.3
		c-12.9-11.2-24.5-22.5-33.7-37c-8.4-13.3-17.9-26.5-24.4-40.8c-13.3-29.9-16.4-67.8-11.7-100c4.5-31,17.4-60.4,35.1-86.1
		c9.3-13.5,21-23.8,32.2-35.6c9.8-10.5,18.2-21.5,30.4-29.4c25-16.1,49.8-33.9,76.8-46.7c27.7-13.1,57.4-20.3,86.6-29.1
		c30.3-9.1,62.6-12.3,93.9-15.6c32.7-3.4,66.7-0.9,99.3,3c31.9,3.8,62.9,11.2,93.4,21.1c14.5,4.7,29,8.6,43,14.6
		c14.4,6.2,28.2,13,41.2,21.9c13,8.9,25.3,18.2,37.1,28.6c11.5,10.1,23.3,19.6,33.4,31.1c11.8,13.4,21.6,26.9,28.6,43.4
		c6.5,15.5,11.8,31,14.8,47.5c3.1,16.7,3.6,33.9,1.9,50.7c-1.6,16.2-3.8,34.2-9.5,49.4c-5,13.1-13.3,25.4-20.8,37.2
		c-9,14.1-19.5,27.4-30.9,39.6c-10.4,11.1-21.6,21-33.4,30.6c-0.7,0.6,1,3.6,1.4,3.3c25.3-20.4,48-43.9,65.2-71.5
		c8.1-12.9,17.4-26.4,21.8-41.1c4.5-15,6.8-31.8,8.1-47.4c4.9-59-17.9-119.5-61.9-159.2c-22.7-20.4-46.3-41.1-73.2-55.7
		c-29.2-15.9-61.9-25.6-93.9-34.3c-32.4-8.7-65.4-13.8-98.8-16c-16.9-1.1-34.1-2.2-51-1.5c-17.4,0.7-35,3-52.2,5.4
		c-16.7,2.4-33.5,5.1-49.9,9.1c-15.7,3.9-30.9,9.5-46.6,13.4c-31.5,7.9-61.7,23.1-88.8,40.9c-12.9,8.5-26.1,16.7-38.9,25.3
		c-12.7,8.6-21.2,20.9-31.9,31.6c-11.4,11.4-22.1,22-31.1,35.5c-9.2,13.8-16.7,28.5-22.6,44c-11.1,29.1-14.1,60.4-10.6,91.3
		c1.7,14.7,4.8,29.8,9.8,43.7c4.5,12.5,11.6,23.6,18.7,34.7c7.9,12.4,15,25.2,25.2,35.9c11.1,11.6,23.7,22,36.1,32.1
		c24.3,19.8,53.4,35,82.3,46.8c31.9,13.1,65.4,20.7,99.2,26.7c15.9,2.9,31.2,6.8,47.6,6.6c17.4-0.3,34.8,0.6,52.2,0.5
		c16.7-0.1,33.3-2,49.9-2.6c16.8-0.7,32.7-2.4,49.2-5.8c16.5-3.5,33.6-5.6,49.6-10.9c15.6-5.2,30.9-11.9,46.2-18.1
		c15.3-6.2,30.1-14.1,44-22.9C634.4,496.3,632.8,493.1,632.3,493.4z"></path>
	<path class="stblack" d="M671.3,437.5c9.1,15.1,18.5,29.6,26.8,45.1c5.1,9.6,12.5,17.9,17.3,27.5c1.5,3,8.4,23-1,18.4c-5.7-2.8-10.5-7.8-15.8-11.2
		c-8.5-5.4-17.2-7.8-26.9-10.2c-23-5.7-45.8-14.3-67.1-24.8c-0.3-0.1,0.2,2.9,1.1,3.3c19.3,9.5,40,17.5,60.7,23.1
		c8.5,2.3,17.2,3.6,25.2,7.4c6.9,3.3,13,7.9,19.2,12.4c1.7,1.2,5.9,5.4,8.4,4.3c2.9-1.3,1.5-8,1.2-10.1
		c-2.4-16.6-15.4-29.1-22.9-43.5c-7.8-15.2-17.3-29.1-26.1-43.7C670.2,433.5,670.8,436.8,671.3,437.5z"></path>
	<path class="stblack" d="M667.9,445.1c8.3,13.8,16.3,27.8,24.8,41.4c4.2,6.7,7.9,13.9,13.2,19.9c3.9,4.5,7,7.6,8.5,13.9c0.6,2.3,2.1,8.1-0.9,9.5
		c-3.9,1.8-13.6-5.2-16.8-6.7c-8.4-4-17-6.5-25.7-9.6c-9.9-3.5-19.4-7.7-29.2-11.6c-10.8-4.3-21.8-8.2-32.3-13.3
		c-0.3-0.1,0.2,2.9,1.1,3.3c12,5.9,24.6,10.1,36.9,15.2c10.6,4.4,21.1,8.8,32.1,12.1c10,3.1,18.9,8,28.5,12.2
		c3.3,1.5,7.6,3.5,8.8-1.1c1.3-5.1-1.5-12.9-3.9-17.4c-1.4-2.7-3.4-4.9-5.4-7.2c-4.2-4.7-7.4-9.6-10.7-15
		c-9.7-15.9-19.2-31.8-28.8-47.8C666.8,441.1,667.5,444.3,667.9,445.1z"></path>
	<path class="stblack" d="M672,432.7c7.2,15.3,13.5,30.9,21.2,45.9c4,7.7,7.5,15.7,11.7,23.2c2,3.5,4.2,6.9,5.7,10.6c1.2,3,4.9,11.8,3.3,14.9
		c-1,2.1-1.4,1.7-3.5,0.5c-3-1.6-5.7-4.1-8.5-6.1c-7.1-5-14.7-9.3-22.9-12.3c-10.1-3.7-20.5-6.6-30.3-11.1
		c-10.6-4.9-20.7-10.9-31.2-16.2c-0.3-0.1,0.2,2.9,1.1,3.3c12.1,6.1,23.7,13.2,36.3,18.4c10.6,4.4,21.9,6.9,32.3,11.7
		c8.6,4,15.6,10,23.6,14.9c3.1,1.9,4.8,2.4,4.9-1.6c0.1-6.5-2.6-14.2-5.4-20c-4.2-8.7-9.1-17-13.4-25.6c-8.6-17.2-16.1-34.7-24.3-52
		C671.4,429.2,671.4,431.4,672,432.7z"></path>
</g>
</svg>
