<!--?xml version="1.0" encoding="utf-8"?-->
<!-- Generator: Adobe Illustrator 22.1.0, SVG Export Plug-In . SVG Version: 6.00 Build 0)  -->
<svg version="1.1" id="_x34_" xmlns="http://www.w3.org/2000/svg" xmlns:xlink="http://www.w3.org/1999/xlink" x="0px" y="0px" viewBox="0 0 800 789.8" style="enable-background:new 0 0 800 789.8;" xml:space="preserve">
<style type="text/css">
	.stblack{fill:#000000;}
	.st0{fill:#FFFFFF;}
</style>
<g>
	<path class="st0" d="M459.9,753.8c-12.9-19-21.2-43.2-28.6-64.9c0,0-17.4,8-22.7,7.5c-50.8,12.8-102.7,11.5-152.1-3.7
		c-43.1-13.9-83.6-32.9-112.7-69.7c-20.3-26.6-36.7-59.5-23.5-92.5c-10.1-8.2-24.3-17.5-24.3-17.5c-34.8-30.9-61.5-113.6-57.5-160
		s26.2-89.9,56.8-124.9c19.7-22.6,43.9-42.7,72.8-51l24-2.3c11.2-67.2,67-124.2,136.6-131.8c24.1-2.5,46.9-2.5,70.9,0
		c22.8,2.5,44.3,10.1,65.9,19c17.7,7.6,32.9,20.3,41.2,38c0,0,14-8.1,26-9.4c79.5-11.3,165.1,22.1,211.6,87.6
		c46.5,65.5,48.6,160.9,0.7,225.3l-13.5,18.9c1.9,0,14.7,21.3,18.8,29.7c12.8,16.1,16.7,38.1,13.8,58.4
		c-2.9,20.4-12.2,39.4-23.4,56.6c-48.7,74.9-139.2,120.6-228.5,115.3c0,0-28.6,2.1-32.5-0.7c-9.8,22.7-18,46.8-18.4,71.7
		L459.9,753.8z"></path>
	<path class="stblack" d="M91,197.8C72.6,216,54.1,240.5,42,265c-6.1,12.1-10.7,24.1-13.9,34.6c-3.2,10.5-5,19.4-6,25.6c-0.9,5.1-1.3,9.9-1.8,14.4
		c-0.4,4.6-0.4,8.9-0.3,13c0.2,8.3,1,15.9,2.3,24.1c1.3,8.2,3,16.8,5.6,27.1c2.7,10.2,6.3,22,11.9,36.1c1.3,3.2,3.5,9.4,6.6,16.7
		c3.1,7.3,7.2,15.7,11.9,23.2c4.7,7.5,10.1,13.9,14.6,17.6c1.2,0.9,2.2,1.7,3.2,2.3c1,0.6,1.9,1,2.6,1.1c1.5,0.4,2.5,0,2.8-1.3
		c0.9-3.5-1.4-7.9-4.8-13.5c-3.4-5.5-8-12.2-12.5-19.3c-4.5-7-8.9-14.3-12.3-20.3c-3.4-6.1-5.9-10.9-6.7-12.9
		c-1.7-4.3-4.9-13-8-23.7c-3.2-10.7-6.1-23.6-8-36c-1.8-12.4-2.4-24.4-1.7-33.1c0.1-2.2,0.4-4.2,0.6-5.9c0.2-1.8,0.3-3.3,0.5-4.5
		c0.4-2.5,0.6-3.9,0.6-3.9s0.1-0.4,0.2-1.2c0.1-0.8,0.3-1.9,0.6-3.3c0.3-1.4,0.7-3.2,1.1-5.2c0.4-2,1-4.3,1.6-6.7
		c2.5-9.9,6.9-23.2,13.2-36.6c6.4-13.4,14.5-27,22.6-38.1c8.1-11.2,15.9-20.1,20.7-25.3c7.6-8.2,15.6-15,23.3-20.5
		c7.7-5.5,15-9.6,21.3-12.8c12.5-6.4,20.6-9.5,19.9-15.1c-0.2-1.6-1.9-2.1-5.1-1.7c-3.2,0.5-7.8,2-13.5,4.8
		C123.5,170.2,107.9,181.1,91,197.8z"></path>
	<path class="stblack" d="M441.2,37.6c-6.3-2.6-13-4.7-19.8-6.9c-3.4-1.1-6.8-2.1-10.1-3.3c-3.5-1.2-7.2-2.3-10.9-3.1c-14.7-3.5-29.9-4.2-43.9-4.5
		c-13.9-0.2-27.1-0.2-38.5,0.9c-2.8,0.3-5.6,0.5-8.1,0.9c-1.3,0.2-2.5,0.4-3.8,0.5c-1.2,0.2-2.4,0.5-3.5,0.7
		c-2.3,0.4-4.4,0.8-6.4,1.2c-1.9,0.5-3.7,1-5.3,1.4c-1.3,0.3-2.6,0.7-3.9,1c-1.3,0.3-2.5,0.8-3.7,1.2c-2.4,0.8-4.7,1.5-6.9,2.4
		c-4.4,1.8-8.5,3.3-12.4,5.3c-1.9,0.9-3.8,1.8-5.7,2.8c-1.8,1-3.6,2-5.5,3.1l-2.7,1.5c-0.9,0.5-1.8,1.1-2.7,1.7
		c-1.8,1.1-3.6,2.3-5.4,3.5c-1.8,1.2-3.5,2.6-5.4,3.9c-0.9,0.7-1.8,1.4-2.8,2c-0.9,0.7-1.8,1.5-2.7,2.2c-1.8,1.5-3.8,3.1-5.7,4.8
		c-1.9,1.8-3.8,3.6-5.8,5.5c-7.9,7.9-16.5,17.7-24.8,31.5c-0.5,0.7-1.1,1.7-1.7,2.8c-0.7,1.1-1.4,2.4-2.2,3.8
		c-1.8,2.7-3.5,6.2-5.4,9.9c-3.7,7.1-8,16-10.7,24.8c-2.8,8.8-4.2,17.5-3.9,23.6c0.1,1.5,0.2,2.9,0.4,4c0.2,1.2,0.5,2.1,0.9,2.8
		c0.7,1.4,1.6,1.9,2.8,1.3c3.2-1.7,4.9-6.6,6.9-13.1c1-3.2,2-6.9,3.1-10.7c1.1-3.9,2.3-7.9,3.7-12c1.3-4.1,2.7-8.2,4.2-12.2
		c1.4-4,2.8-7.8,4-11.2c1.4-3.3,2.7-6.2,3.7-8.6c1.1-2.3,2.1-4,2.7-5c0.6-1,1.4-2.3,2.4-3.7c1-1.4,2.2-3,3.5-4.8
		c0.6-0.9,1.3-1.8,2-2.8c0.8-0.9,1.6-1.9,2.4-2.9c1.7-2,3.3-4.2,5.4-6.2c7.7-8.6,18-17.6,28.9-24.8c10.8-7.2,22.1-12.6,30.6-15.8
		c2.1-0.9,4.1-1.4,5.9-2c1.7-0.6,3.2-1.1,4.5-1.5c2.5-0.7,4-1,4-1s1.6-0.4,4.5-1.2c1.5-0.3,3.3-0.6,5.4-1.1c2.1-0.4,4.4-0.9,7.1-1.2
		c5.3-0.7,11.5-1.3,18.4-1.6c6.9-0.3,14.4-0.4,22.3-0.3c7.8,0.1,15.8,0.2,23.6,0.8c7.8,0.6,15.4,1.5,22.3,3c3.5,0.7,6.8,1.6,9.8,2.6
		c1.6,0.5,3.1,1,4.6,1.5c1.5,0.5,3,1,4.4,1.4c5.6,1.8,10.3,3.3,13.8,4.5c10.9,3.8,20.8,8.5,28.7,14c8,5.5,14.2,11.6,18.9,17
		c9.4,10.9,14,18.8,19.5,17c1.6-0.5,1.6-2.3,0.5-5.5c-1.1-3.2-3.7-7.5-7.9-12.8c-1.1-1.3-2.2-2.6-3.5-4.1c-0.6-0.7-1.3-1.4-2-2.1
		c-0.7-0.7-1.4-1.4-2.2-2.1c-0.7-0.7-1.5-1.5-2.3-2.2c-0.8-0.7-1.7-1.4-2.6-2.1c-1.7-1.5-3.5-3-5.6-4.4
		C462.7,47.7,452.8,42.2,441.2,37.6z"></path>
	<path class="stblack" d="M766.3,308.3c0.7-3.8,1.1-7.7,1.6-11.7c0.3-4,0.7-8.1,0.9-12.2c0.3-8.3,0.3-16.7-0.4-25.2c-1.3-17-4.7-34-9.9-49.3
		c-1.2-3.9-2.7-7.6-4-11.2c-1.5-3.6-2.9-7.2-4.6-10.5c-1.5-3.4-3.2-6.6-4.8-9.7c-0.8-1.6-1.7-3-2.5-4.5c-0.8-1.5-1.6-2.9-2.5-4.3
		c-6.8-11.2-13.5-19.7-18.3-25.3c-8-9.4-15.5-16.6-22.9-22.9c-7.4-6.3-14.7-11.8-23-17.2c-8.2-5.3-17.4-10.6-28.9-15.9
		c-2.8-1.4-5.9-2.6-9.1-4c-1.6-0.7-3.2-1.3-4.9-1.9c-1.7-0.7-3.4-1.3-5.2-1.9c-7.1-2.6-14.9-5-23.7-7.1c-3.9-1-11.6-3.1-20.8-4.9
		c-9.3-1.8-20.3-3.3-30.6-3.6c-10.4-0.3-20.1,0.4-26.7,1.8c-6.6,1.5-10.1,3.4-8.3,5.5c1.2,1.4,3.3,2.4,6,3c1.4,0.3,3,0.6,4.7,0.8
		c1.7,0.2,3.6,0.3,5.5,0.4c7.9,0.4,17.7,0.3,27.7,0.6c10,0.3,20,0.9,28.3,1.8c8.2,0.9,14.6,2,17,2.6c5.3,1.4,15.8,4.4,28.1,9.5
		c6.1,2.5,12.7,5.6,19.3,9c6.6,3.5,13.2,7.4,19.4,11.5c6.2,4.2,12.1,8.5,17.3,12.8c5.2,4.3,9.8,8.4,13.5,12.2
		c3.8,3.7,6.6,6.9,8.7,9.1c2,2.3,3.1,3.6,3.1,3.6s1.3,1.4,3.4,4.2c1.1,1.4,2.4,3,3.9,4.9c1.4,2,3.1,4.2,4.8,6.7
		c6.9,10,15.1,24.5,21.1,41.1c6.1,16.5,10.1,34.9,11.5,51.2c1.5,16.3,0.7,30.4-0.2,38.7c-1.4,13.1-4.4,25.3-8.1,35.9
		c-3.7,10.6-8.1,19.7-11.9,27.2c-3.9,7.5-7.4,13.4-9.2,18c-2,4.6-2.4,7.9-0.5,9.9c1.1,1.2,2.9,0.3,5.5-2.4c1.3-1.3,2.7-3.2,4.3-5.6
		c1.6-2.3,3.3-5.2,5.1-8.4C753.2,357.2,761.8,336.3,766.3,308.3z"></path>
	<path class="stblack" d="M321.3,682.7c-12.7-0.2-26.6-1.3-40.4-3.5c-13.8-2.2-27.7-5.5-40.4-9.4c-25.6-7.9-46.5-18.6-57.1-24.7
		c-8.8-5.1-15.9-9.8-22.3-14.5c-6.4-4.8-12.2-9.5-17.6-15.2c-1.3-1.4-2.7-3-4.1-4.6c-1.4-1.6-2.8-3.3-4.2-5
		c-2.8-3.5-5.7-7.2-8.7-11.5c-3-4.2-6-8.9-9-14.3c-3-5.3-5.9-11.3-8.4-18.2c-1.1-3.1-2.8-9.2-3.4-16.6c-0.3-3.7-0.4-7.6,0-11.6
		c0.3-4,1.1-7.9,2.2-11.5c2.2-7.3,6-13.3,8.8-17.6c1.4-2.2,2.4-3.9,2.9-5.3c0.4-1.4,0.2-2.4-1-2.9c-0.8-0.3-1.7-0.4-2.8-0.3
		c-0.5,0.1-1.1,0.2-1.6,0.3c-0.6,0.2-1.1,0.4-1.7,0.7c-2.4,1.1-5,3.2-7.6,6c-2.5,2.9-4.8,6.6-6.6,10.8c-1.8,4.2-2.9,9-3.4,13.8
		c-0.5,4.8-0.3,9.6,0.3,14c0.7,4.5,1.7,8.6,2.8,12.2c2.3,7.2,5,12.3,5.8,14.4c1.8,4.5,5.8,13.4,12.1,23.2
		c3.1,4.9,6.8,10.1,10.8,15.3c1,1.3,2,2.6,3.1,3.8c1.1,1.3,2.1,2.6,3.2,3.8l3.2,3.7c1.1,1.2,2.3,2.5,3.4,3.7
		c4.7,4.7,9.6,8.9,14.3,12.5c2.3,1.8,4.7,3.5,6.8,5c2.2,1.5,4.3,3,6.2,4.2c1.9,1.2,3.7,2.4,5.3,3.4c1.6,1,3,1.8,4.1,2.5
		c1.1,0.7,2,1.2,2.6,1.5c0.6,0.3,0.9,0.5,0.9,0.5s1.5,0.8,4.1,2.3c2.7,1.4,6.5,3.5,11.3,5.9c9.5,4.7,22.9,10.6,37.5,15.3
		c1.8,0.6,3.7,1.2,5.5,1.8c1.9,0.6,3.7,1.1,5.6,1.7l2.8,0.8l2.8,0.7c1.9,0.5,3.8,1,5.7,1.5c3.8,0.9,7.6,1.8,11.3,2.6
		c1.9,0.4,3.7,0.7,5.5,1.1c1.8,0.4,3.6,0.7,5.4,1c14.1,2.3,26.4,3.4,33.7,3.6c11.5,0.6,22.5,0.9,32.4,0.6c9.9-0.2,18.8-0.9,26.3-2
		c7.4-1.2,13.4-2.5,17.4-4.5c4-1.9,6.1-4,5.8-6.8c-0.2-1.6-1.8-2.2-4.9-2.1c-1.5,0.1-3.4,0.3-5.7,0.8c-2.2,0.5-4.9,0.8-7.9,1.5
		c-1.5,0.3-3.1,0.6-4.7,1c-1.7,0.3-3.4,0.6-5.3,0.9c-1.9,0.3-3.8,0.7-5.8,1c-2,0.3-4.2,0.6-6.4,0.9c-4.4,0.7-9.3,1-14.4,1.4
		c-2.6,0.2-5.3,0.2-8,0.3C327.1,682.8,324.2,682.8,321.3,682.7z"></path>
	<path class="stblack" d="M448.7,734.6c-4.4-6.1-8.9-13.7-12.5-20.6c-3.7-6.9-6.3-13.3-7.7-16.6c-1.2-2.8-2.1-5.1-2.9-7.4c-0.8-2.2-1.6-4.3-2.4-6.6
		c-1.6-4.6-3.5-9.8-6.4-18.3c-0.7-1.9-1.2-7.9-2.7-12.9c-1.5-5-4-8.9-8.1-6.5c-5.5,3.2-4.5,8.1-2.2,12.7c2.3,4.6,6.1,8.8,6.5,10.1
		c0.9,2.7,3.6,10.6,6.2,17.8c1.3,3.6,2.6,7.1,3.6,9.6c0.5,1.3,0.9,2.3,1.2,3c0.3,0.7,0.5,1.1,0.5,1.1s0.8,1.9,2,4.8
		c0.6,1.5,1.4,3.1,2.3,5c0.4,0.9,0.9,1.9,1.3,2.9c0.5,1,1,2,1.5,3c2,4.1,4.5,8.3,6.6,12c2.3,3.6,4.2,6.7,5.5,8.5
		c2,2.8,3.5,5.7,5,8.3c1.5,2.6,2.7,5,4.1,6.8c2.8,3.6,5.5,5,9.7,1.5c2.5-2.1,1.8-3.9-0.6-6.5c-1.2-1.3-2.9-2.8-4.7-4.8
		C452.8,739.7,450.6,737.5,448.7,734.6z"></path>
	<path class="stblack" d="M450.3,742.1c-0.5-9.7,0.5-21.3,2.7-31.4c2-10.1,4.9-18.8,6.5-23.3c2.6-7.5,4.7-12.5,7.2-18.3c2.6-5.8,5.6-12.4,11.2-22.8
		c1.2-2.3,6.2-8.3,9.8-13.9c3.6-5.7,5.7-11.4,1.1-12.8c-3.1-0.9-5.6-0.1-7.7,1.8c-2.1,1.9-3.9,4.7-5.3,7.9c-2.8,6.3-4.3,13.5-5,15
		c-1.8,3.3-6.9,13.2-11,22.6c-4.2,9.3-7.2,18.2-7.2,18.2s-0.2,0.6-0.6,1.8c-0.4,1.1-1,2.7-1.5,4.8c-1.3,4-2.8,9.5-4.1,15.4
		c-1.3,5.9-2.3,12.3-2.8,18c-0.1,1.4-0.2,2.8-0.3,4.1c-0.1,1.3-0.1,2.5-0.2,3.7c0,1.1-0.1,2.2-0.1,3.2c0,1,0,1.8,0,2.5
		c0.1,9.1-0.2,17.5,1,23.5c0.3,1.5,0.7,2.8,1.1,4c0.5,1.1,1.1,2,1.8,2.7c1.4,1.4,3.3,1.8,5.9,1.1c3.1-0.9,3-3.3,1.6-7.7
		C453.1,757.7,450.7,751.1,450.3,742.1z"></path>
	<path class="stblack" d="M566.9,662.9c12.2-2.8,25.3-6.7,38.2-11.7c12.8-5.1,25.4-11.2,36.8-17.7c11.4-6.5,21.5-13.6,29.9-20
		c8.4-6.4,14.8-12.4,19.2-16.4c14.5-13.9,23.2-24.4,32.6-37.4c1.2-1.6,2.3-3.3,3.5-5c1.2-1.7,2.4-3.5,3.5-5.4
		c2.4-3.7,4.8-7.8,7.3-12.3c2.5-4.5,4.9-9.6,7.3-15.3c2.4-5.7,4.6-12.2,6.3-19.5c0.7-3.3,2.5-9.6,3.3-17.6c0.8-7.9,0.6-17.4-1.5-26
		c-1.9-8.7-5.7-16.3-9.4-20.8c-0.9-1.1-1.8-2.1-2.7-2.8c-0.9-0.7-1.7-1.2-2.4-1.6c-1.4-0.6-2.4-0.4-3,0.8c-1.5,3.2-0.1,7.8,1.7,13.7
		c1.9,5.8,4.2,12.9,5.6,20.6c1.5,7.6,2.1,15.5,1.9,22.1c-0.2,6.6-1,11.7-1.5,13.7c-1.1,4.3-3.7,12.7-8.4,22.4
		c-2.3,4.8-5.1,10-8.3,15.2c-3.1,5.2-6.6,10.4-10.2,15.3c-7.1,9.9-14.7,18.7-20.6,24.9c-1.5,1.5-2.8,3-4,4.2
		c-1.2,1.2-2.3,2.2-3.2,3.1c-1.8,1.7-2.8,2.7-2.8,2.7s-0.3,0.3-0.8,0.8c-0.6,0.5-1.4,1.2-2.4,2.2c-1.1,0.9-2.3,2.1-3.8,3.4
		c-1.5,1.3-3.2,2.8-5.1,4.4c-1.9,1.6-4.1,3.2-6.3,5.1c-2.3,1.8-4.8,3.6-7.3,5.5c-5.3,3.7-11,7.7-17.2,11.3
		c-12.3,7.5-26,14.3-38.4,19.2c-12.4,5-23.4,8.3-30,10c-10.4,2.8-20.5,4.3-29.7,5.2c-9.2,0.9-17.4,1-24.3,1.3
		c-13.8,0.3-22.5,0.7-23.6,6.2c-0.3,1.6,1,2.6,4,3.3c3,0.7,7.6,0.9,13.6,0.8C526.6,670,544.5,668,566.9,662.9z"></path>
</g>
</svg>
